<svg width="48" height="48" viewBox="0 0 48 48" fill="none" xmlns="http://www.w3.org/2000/svg">
<rect width="48" height="48" rx="24" fill="#8650F4"/>
<path d="M30 19.16C29.94 19.15 29.87 19.15 29.81 19.16C28.43 19.11 27.33 17.98 27.33 16.58C27.33 15.15 28.48 14 29.91 14C31.34 14 32.49 15.16 32.49 16.58C32.48 17.98 31.38 19.11 30 19.16Z" stroke="white" stroke-width="1.5" stroke-linecap="round" stroke-linejoin="round"/>
<path d="M28.97 26.4399C30.34 26.6699 31.85 26.4299 32.91 25.7199C34.32 24.7799 34.32 23.2399 32.91 22.2999C31.84 21.5899 30.31 21.3499 28.94 21.5899" stroke="white" stroke-width="1.5" stroke-linecap="round" stroke-linejoin="round"/>
<path d="M17.97 19.16C18.03 19.15 18.1 19.15 18.16 19.16C19.54 19.11 20.64 17.98 20.64 16.58C20.64 15.15 19.49 14 18.06 14C16.63 14 15.48 15.16 15.48 16.58C15.49 17.98 16.59 19.11 17.97 19.16Z" stroke="white" stroke-width="1.5" stroke-linecap="round" stroke-linejoin="round"/>
<path d="M19 26.4399C17.63 26.6699 16.12 26.4299 15.06 25.7199C13.65 24.7799 13.65 23.2399 15.06 22.2999C16.13 21.5899 17.66 21.3499 19.03 21.5899" stroke="white" stroke-width="1.5" stroke-linecap="round" stroke-linejoin="round"/>
<path d="M24 26.63C23.94 26.62 23.87 26.62 23.81 26.63C22.43 26.58 21.33 25.45 21.33 24.05C21.33 22.62 22.48 21.47 23.91 21.47C25.34 21.47 26.49 22.63 26.49 24.05C26.48 25.45 25.38 26.59 24 26.63Z" stroke="white" stroke-width="1.5" stroke-linecap="round" stroke-linejoin="round"/>
<path d="M21.09 29.7799C19.68 30.7199 19.68 32.2599 21.09 33.1999C22.69 34.2699 25.31 34.2699 26.91 33.1999C28.32 32.2599 28.32 30.7199 26.91 29.7799C25.32 28.7199 22.69 28.7199 21.09 29.7799Z" stroke="white" stroke-width="1.5" stroke-linecap="round" stroke-linejoin="round"/>
</svg>
