<svg width="48" height="48" viewBox="0 0 48 48" fill="none" xmlns="http://www.w3.org/2000/svg">
<circle cx="24" cy="24" r="23.5" fill="#F9F7FF" stroke="#5236C0"/>
<path d="M18.2799 34C20.003 34 21.3999 32.6031 21.3999 30.88C21.3999 29.1569 20.003 27.76 18.2799 27.76C16.5568 27.76 15.1599 29.1569 15.1599 30.88C15.1599 32.6031 16.5568 34 18.2799 34Z" stroke="#5236C0" stroke-width="1.5" stroke-linecap="round" stroke-linejoin="round"/>
<path d="M32.8399 28.8001V16.6001C32.8399 14.0001 31.2099 13.6401 29.5599 14.0901L23.3199 15.7901C22.1799 16.1001 21.3999 17.0001 21.3999 18.3001V20.4701V21.9301V30.8701" stroke="#5236C0" stroke-width="1.5" stroke-linecap="round" stroke-linejoin="round"/>
<path d="M29.7201 31.9199C31.4432 31.9199 32.8401 30.5231 32.8401 28.7999C32.8401 27.0768 31.4432 25.6799 29.7201 25.6799C27.997 25.6799 26.6001 27.0768 26.6001 28.7999C26.6001 30.5231 27.997 31.9199 29.7201 31.9199Z" stroke="#5236C0" stroke-width="1.5" stroke-linecap="round" stroke-linejoin="round"/>
<path d="M21.3999 21.5199L32.8399 18.3999" stroke="#5236C0" stroke-width="1.5" stroke-linecap="round" stroke-linejoin="round"/>
</svg>
