<svg width="201" height="201" viewBox="0 0 201 201" fill="none" xmlns="http://www.w3.org/2000/svg">
<path d="M44.8465 101.164C46.5873 95.9303 49.1455 91.0252 52.4197 86.6431C73.5141 59.327 113.327 73.4405 136.901 89.045C137.74 89.6094 138.59 90.1739 139.418 90.7708C161.979 106.554 173.381 135.484 157.323 159.956C150.037 171.082 138.888 179.776 127.276 185.435C112.02 192.824 82.1432 202.622 65.4481 196.8C55.1379 193.193 49.418 182.237 45.5985 172.458C41.0602 160.812 39.3569 148.112 39.5938 135.613C39.8202 124.792 41.0151 112.191 44.8465 101.164Z" fill="url(#paint0_linear_1255_30561)"/>
<path d="M57.3341 106.557C58.8458 101.975 60.9037 97.6932 63.6755 94.0241C81.5985 70.3019 116.723 81.5418 137.655 94.3737C138.407 94.845 139.155 95.3163 139.898 95.7876C159.96 108.794 170.513 133.234 156.945 154.426C150.78 164.067 141.22 171.701 131.151 176.757C117.938 183.386 91.977 192.327 77.2557 187.684C68.1621 184.82 62.9378 175.58 59.4057 167.322C55.1986 157.49 53.455 146.699 53.4215 136.018C53.4006 126.804 54.2022 116.042 57.3341 106.557Z" fill="url(#paint1_linear_1255_30561)"/>
<path fill-rule="evenodd" clip-rule="evenodd" d="M121.497 0.426119C123.01 0.457518 124.562 0.489739 126.239 0.489739C126.789 0.490147 127.796 0.491283 129.184 0.492848C140.281 0.505359 175.698 0.545287 195.999 0.460326C196.721 0.460026 197.434 0.623698 198.085 0.939157C198.736 1.25462 199.308 1.71373 199.758 2.2823C200.208 2.85087 200.525 3.51424 200.684 4.223C200.844 4.93177 200.843 5.66766 200.681 6.37587C198.925 14.0347 196.92 20.8391 194.952 27.5222C193.826 31.3426 192.713 35.1234 191.664 39.0014C180.545 80.0756 162.99 130.076 133.786 155.625C127.134 161.441 117.507 166.191 107.876 167.603L107.569 167.651L106.944 167.732C105.546 167.92 104.137 168.02 102.726 168.029H102.265C98.8829 168.068 95.5177 167.537 92.3092 166.459C78.1094 161.956 67.7767 148.246 67.7767 132.069C67.7767 112.209 83.3325 96.109 102.499 96.109C111.864 96.109 120.895 98.6826 127.138 104.933C130.93 101.366 132.867 98.0058 134.985 94.3317C135.574 93.31 136.178 92.264 136.838 91.1824C141.617 83.2626 145.61 74.8888 148.757 66.182C148.83 65.9822 148.902 65.7817 148.975 65.5806C150.57 61.1732 152.281 56.4469 151.802 51.781C151.32 47.0824 149.543 43.4096 145.998 40.3176C141.396 36.3028 136.327 34.7734 130.351 36.3764C126.261 37.472 122.675 39.608 119.386 42.2257C117.379 43.8184 115.462 45.4849 113.549 47.1475C110.129 50.1209 106.723 53.082 102.843 55.5862C96.9862 59.4162 90.6124 62.3791 83.9173 64.3842C64.6809 70.0093 43.2734 63.8695 31.464 47.1927C28.7922 43.428 26.5297 39.3838 24.2928 35.3396C19.3988 26.4975 14.2854 18.8687 7.21656 11.6443C6.97441 11.3964 6.70121 11.087 6.40242 10.7486C4.91979 9.06937 2.80718 6.67661 0.732544 7.54868C9.066 4.05965 12.9074 2.47139 23.4668 6.44572C29.2357 8.61284 33.612 14.0396 37.6227 19.0131C38.5518 20.1652 39.4613 21.2931 40.364 22.3504C46.5227 29.5307 53.6829 36.7955 63.7561 36.8837C74.3374 36.972 83.4823 29.5343 89.2646 21.3026C90.6715 19.2996 91.7371 17.0437 92.802 14.7892C94.6614 10.853 96.5185 6.92153 100.186 4.3501C103.793 1.83535 108.26 0.725037 112.595 0.489739C115.818 0.308257 118.584 0.365664 121.497 0.426119ZM100.973 123.616L112.891 130.53C113.401 130.828 113.825 131.255 114.119 131.768C114.413 132.282 114.568 132.864 114.568 133.457C114.568 134.05 114.413 134.632 114.119 135.146C113.825 135.659 113.401 136.086 112.891 136.384L100.973 143.299C100.462 143.595 99.8816 143.751 99.2913 143.751C98.7009 143.751 98.1209 143.595 97.6096 143.299C97.0983 143.002 96.6736 142.575 96.3784 142.062C96.0831 141.548 95.9276 140.965 95.9274 140.372V126.543C95.9276 125.949 96.0831 125.366 96.3784 124.853C96.6736 124.339 97.0983 123.912 97.6096 123.616C98.1209 123.319 98.7009 123.163 99.2913 123.163C99.8816 123.163 100.462 123.319 100.973 123.616Z" fill="url(#paint2_linear_1255_30561)"/>
<defs>
<linearGradient id="paint0_linear_1255_30561" x1="63.9515" y1="176.804" x2="141.869" y2="86.9955" gradientUnits="userSpaceOnUse">
<stop offset="0.314064" stop-color="#2F5FF5"/>
<stop offset="1" stop-color="#8650F4"/>
</linearGradient>
<linearGradient id="paint1_linear_1255_30561" x1="150.622" y1="189.395" x2="62.4307" y2="72.1206" gradientUnits="userSpaceOnUse">
<stop stop-color="white" stop-opacity="0.8"/>
<stop offset="1" stop-color="white"/>
</linearGradient>
<linearGradient id="paint2_linear_1255_30561" x1="-134.402" y1="-29.0503" x2="100.768" y2="168.031" gradientUnits="userSpaceOnUse">
<stop stop-color="#E8E8E8"/>
<stop offset="0.987764" stop-color="#62A1FF"/>
<stop offset="0.987864" stop-color="#60A0FF"/>
</linearGradient>
</defs>
</svg>
